<?xml version="1.0" encoding="utf-8"?>
<!-- Generator: Adobe Illustrator 22.1.0, SVG Export Plug-In . SVG Version: 6.00 Build 0)  -->
<svg version="1.1" id="Capa_1" xmlns="http://www.w3.org/2000/svg" xmlns:xlink="http://www.w3.org/1999/xlink" x="0px" y="0px"
	 viewBox="0 0 420.8 420.8" style="enable-background:new 0 0 420.8 420.8;" xml:space="preserve">
<style type="text/css">
	.st0{clip-path:url(#SVGID_2_);}
	.st1{fill:#E74424;}
	.st2{fill:#F7F1E6;}
</style>
<g>
	<defs>
		<circle id="SVGID_1_" cx="209.4" cy="210.4" r="211.5"/>
	</defs>
	<use xlink:href="#SVGID_1_"  style="overflow:visible;fill:#FFFFFF;"/>
	<clipPath id="SVGID_2_">
		<use xlink:href="#SVGID_1_"  style="overflow:visible;"/>
	</clipPath>
	<g class="st0">
		<g id="Guides_For_Artboard_18_">
		</g>
		<g id="Artwork_17_">
		</g>
		<g id="Layer_2_17_">
			<g>
				<path class="st1" d="M150.9,136c1.2-3.4,4.6-5.5,8.2-5c3.6,0.5,6.4,3.4,6.7,7L178,281.3l23-82.9c0.9-3.4,4-5.7,7.6-5.6
					c3.5,0.1,6.5,2.5,7.3,6l12.8,55.5l21.9-91.8c0.9-3.6,4.2-6.1,7.8-5.9c3.7,0.2,6.7,2.9,7.2,6.6L282,279.5l7.3-23.6
					c1-3.2,4-5.4,7.3-5.4h82.2c12.1-18.2,20.6-36.2,23.5-53.6c6.3-38.5,0.2-70.2-18.2-94.4c-18.6-24.3-46.7-38.2-86.2-42.4
					c-3.8-0.4-7.3-0.6-10.7-0.6c-28,0-56.1,10.4-77.8,28c-21.6-17.6-49.8-28-77.7-28c-3.5,0-6.9,0.2-10.7,0.6
					c-39.5,4.2-67.7,18.1-86.2,42.4c-18.4,24.1-24.5,55.9-18.2,94.4c2.9,17.7,11.7,36,24.1,54.5h69L150.9,136z"/>
				<path class="st1" d="M286.5,316.9c-1.1,3.4-4.4,5.7-8,5.4c-3.6-0.3-6.5-3-7-6.6l-15.4-110l-20,84.1c-0.8,3.5-3.9,5.9-7.5,5.9
					c0,0,0,0,0,0c-3.6,0-6.7-2.5-7.5-6l-13.4-58l-26.3,94.9c-0.9,3.4-4,5.6-7.4,5.6c-0.2,0-0.5,0-0.7,0c-3.7-0.3-6.6-3.3-6.9-7
					l-12.9-150.9l-31.3,87.3c-1.1,3.1-4,5.1-7.2,5.1H51.6c25.5,33.3,60.6,66.2,91.2,95.1c0,0,26.1,26.2,34,33
					c5.9,5.1,18.7,15.3,32.6,15.3c13.9,0,26.7-10.2,32.6-15.3c7.8-6.7,34-33,34-33c30.9-29.1,66.3-62.4,91.9-95.9h-65.5L286.5,316.9
					z"/>
				<path class="st2" d="M395.5,250.5h-16.7h-82.2c-3.4,0-6.3,2.2-7.3,5.4l-7.3,23.6l-16.3-116.3c-0.5-3.7-3.6-6.4-7.2-6.6
					c-3.7-0.2-7,2.3-7.8,5.9l-21.9,91.8l-12.8-55.5c-0.8-3.4-3.8-5.9-7.3-6c-3.5-0.1-6.6,2.2-7.6,5.6l-23,82.9l-12.3-143.4
					c-0.3-3.6-3.1-6.5-6.7-7c-3.6-0.5-7,1.6-8.2,5l-41.4,115.3h-69h-9.2c-4.2,0-10.1,3.8-10.1,8c0,4.2,9.7,7.4,13.9,7.4h16.4h63.3
					c3.2,0,6.1-2,7.2-5.1l31.3-87.3l12.9,150.9c0.3,3.7,3.2,6.7,6.9,7c0.2,0,0.5,0,0.7,0c3.4,0,6.5-2.3,7.4-5.6l26.3-94.9l13.4,58
					c0.8,3.5,3.9,5.9,7.5,6c0,0,0,0,0,0c3.6,0,6.7-2.4,7.5-5.9l20-84.1l15.4,110c0.5,3.6,3.4,6.3,7,6.6c3.6,0.3,6.9-1.9,8-5.4
					l15.8-51.1h65.5h27.7c4.2,0,7.7-3.4,7.7-7.7C403.2,253.9,399.8,250.5,395.5,250.5z"/>
			</g>
		</g>
	</g>
</g>
</svg>
