<?xml version="1.0" encoding="utf-8"?>
<!-- Generator: Adobe Illustrator 22.1.0, SVG Export Plug-In . SVG Version: 6.00 Build 0)  -->
<svg version="1.1" id="Layer_1" xmlns="http://www.w3.org/2000/svg" xmlns:xlink="http://www.w3.org/1999/xlink" x="0px" y="0px"
	 viewBox="0 0 100 100" style="enable-background:new 0 0 100 100;" xml:space="preserve">
<style type="text/css">
	.st0{clip-path:url(#SVGID_2_);}
	.st1{fill:none;}
	.st2{fill:#FFFFFF;}
	.st3{font-family:'MyriadPro-Regular';}
	.st4{font-size:25px;}
</style>
<rect x="112.4" y="21.8" class="st1" width="3.9" height="18.6"/>
<g>
	<defs>
		<circle id="SVGID_1_" cx="50" cy="50" r="50"/>
	</defs>
	<clipPath id="SVGID_2_">
		<use xlink:href="#SVGID_1_"  style="overflow:visible;"/>
	</clipPath>
	<g class="st0">
		<circle cx="50" cy="50" r="49.5"/>
		<path d="M50,0.8c27.2,0,49.3,22.1,49.3,49.3S77.2,99.3,50,99.3S0.8,77.2,0.8,50S22.8,0.8,50,0.8 M50,0.3C22.5,0.3,0.3,22.5,0.3,50
			S22.5,99.8,50,99.8S99.8,77.5,99.8,50S77.5,0.3,50,0.3L50,0.3z"/>
	</g>
	<g class="st0">
		<rect x="2.1" y="23.2" class="st1" width="96.8" height="46.1"/>
		<text transform="matrix(1 0 0 1.08 4.6021 58.9326)" class="st2 st3 st4">ENGLISH</text>
	</g>
</g>
</svg>
