<?xml version="1.0" encoding="utf-8"?>
<!-- Generator: Adobe Illustrator 22.1.0, SVG Export Plug-In . SVG Version: 6.00 Build 0)  -->
<svg version="1.1"
	 id="svg9803" inkscape:version="0.91 r13725" sodipodi:docname="Movistar 2016 Vertical Green.svg" xmlns:cc="http://creativecommons.org/ns#" xmlns:dc="http://purl.org/dc/elements/1.1/" xmlns:inkscape="http://www.inkscape.org/namespaces/inkscape" xmlns:rdf="http://www.w3.org/1999/02/22-rdf-syntax-ns#" xmlns:sodipodi="http://sodipodi.sourceforge.net/DTD/sodipodi-0.dtd" xmlns:svg="http://www.w3.org/2000/svg"
	 xmlns="http://www.w3.org/2000/svg" xmlns:xlink="http://www.w3.org/1999/xlink" x="0px" y="0px" viewBox="0 0 787.5 771.8"
	 style="enable-background:new 0 0 787.5 771.8;" xml:space="preserve">
<style type="text/css">
	.st0{display:none;}
	.st1{fill:#FFFFFF;}
	.st2{fill:#66CD00;}
</style>
<sodipodi:namedview  bordercolor="#666666" borderopacity="1" gridtolerance="10" guidetolerance="10" id="namedview10050" inkscape:current-layer="svg9803" inkscape:cx="215.49668" inkscape:cy="598.45103" inkscape:pageopacity="0" inkscape:pageshadow="2" inkscape:window-height="705" inkscape:window-maximized="1" inkscape:window-width="1366" inkscape:window-x="-8" inkscape:window-y="-8" inkscape:zoom="0.35355339" objecttolerance="10" pagecolor="#ffffff" showgrid="false">
	</sodipodi:namedview>
<g id="Info" transform="translate(-99.353841,-57.801001)" class="st0">
</g>
<circle class="st1" cx="393.8" cy="385.9" r="387.1"/>
<path id="path10044" inkscape:connector-curvature="0" class="st2" d="M686.6,388.9c-0.4,30.6-2.5,62.6-9.7,94.2
	c-2.2,9.5-6.7,17.8-13.2,24.8c-8.4,9-19,13.2-31.2,10.1c-12.2-3-18.4-12.1-21-23.7c-3.6-15.8-0.6-31.8,1-47.5
	c2.5-23.9,4.5-47.9,3.5-72c-0.5-12.6-2.1-25.5-11.5-35c-12.6-12.6-30-11.1-45.1,3.1c-13.8,12.9-23.1,28.9-30.9,46
	c-15.6,34.7-26.2,71.1-37.4,107.2c-6.1,19.5-12.9,38.7-26.7,54.2c-48,54-136.8,48.1-176.5-12.8c-22.2-34-41.1-70-61.5-105.1
	c-4.5-7.6-9.2-14.9-15.3-21.4c-6.6-6.9-14-10.1-23.6-7.7c-10.2,2.6-13.8,10.4-15.5,19.3c-2.5,13.5-0.7,26.9,1.9,40.3
	c5.8,29.3,17.1,57,24.2,85.9c2.2,8.9,3.6,17.9,3,27.1c-0.7,10.6-5.1,19.3-15.1,23.4c-11.4,4.8-22.7,3.6-32.5-4.3
	c-9.5-7.7-14.7-18.7-18.9-29.7c-21.4-56.1-36.7-113.5-33.5-174.3c2.1-39.9,9.1-78.8,27.7-114.6c15.1-29.2,36.7-51.1,71.1-56.2
	c23.4-3.5,44.3,2.2,62.4,17.6c21.2,18.1,36,41.1,51.2,64c11.5,17.1,20.7,35.8,34.1,51.5c12.9,15.2,28.4,26.6,49.5,25.8
	c23.4-0.8,37.8-14.9,46.8-35.1c15.6-35.3,28.4-71.7,44.8-106.7c12.6-27,30.8-48.9,58.5-60.7c41.6-17.6,79.7-3.4,102.1,37.3
	c18.3,33.4,27.2,69.8,32.4,107.3C684.9,343.3,686,365.3,686.6,388.9L686.6,388.9z"/>
</svg>
